[Header]                  # Header keywords are followed by a single value
FileType htr              # single word string
DataType HTRS             # Hierarchical translations followed by rotations and Scale
FileVersion 1             # integer
NumSegments   22        # integer
NumFrames   7          # integer
DataFrameRate    60      # integer
EulerRotationOrder ZYX    # one word string
CalibrationUnits mm   # one word string
RotationUnits Degrees     # one word string
GlobalAxisofGravity Y        # character, X or Y or Z
BoneLengthAxis Y
ScaleFactor 1.0000
[SegmentNames&Hierarchy]
#CHILD         PARENT
LowerTorso	GLOBAL
MidTorso1	LowerTorso
MidTorso2	MidTorso1
UpperTorso	MidTorso2
Neck	UpperTorso
Head	Neck
LCollar	UpperTorso
LUpArm	LCollar
LLowArm	LUpArm
LHand	LLowArm
RCollar	UpperTorso
RUpArm	RCollar
RLowArm	RUpArm
RHand	RLowArm
RThigh	LowerTorso
RLowLeg	RThigh
RFoot	RLowLeg
RToe	RFoot
LThigh	LowerTorso
LLowLeg	LThigh
LFoot	LLowLeg
LToe	LFoot
[BasePosition]
#SegmentName Tx, Ty, Tz, Rx, Ry, Rz, BoneLength
LowerTorso	245.858011	950.547112	300.901792	3.160114	-0.119681	0.216534	50.177140	
MidTorso1	0.000000	50.177140	0.000000	12.744977	0.544086	-1.233692	50.243103	
MidTorso2	0.000000	50.243103	0.000000	-8.561622	-5.666755	-0.324056	70.108070	
UpperTorso	0.000000	70.108070	0.000000	-7.840640	5.423498	1.565454	211.798493	
Neck	0.000000	211.798493	0.000000	3.763396	2.354772	0.143986	247.477358	
Head	0.000000	247.477358	0.000000	87.188098	-1.617490	-0.909978	97.755902	
LCollar	5.963899	207.774288	0.020038	-0.085181	3.120430	-88.053499	154.341182	
LUpArm	0.000000	154.341182	0.000000	17.609330	2.601210	1.098979	257.694232	
LLowArm	0.000000	257.694232	0.000000	-4.295116	-4.411555	-0.381267	245.288314	
LHand	0.000000	245.288314	0.000000	-1.254656	0.451892	-3.187610	143.943585	
RCollar	-6.407295	207.548200	-0.033576	-3.957489	-2.573361	89.782717	159.716168	
RUpArm	0.000000	159.716168	0.000000	10.569861	0.025507	1.593474	259.181013	
RLowArm	0.000000	259.181013	0.000000	2.433186	-0.094719	0.439860	254.783021	
RHand	0.000000	254.783021	0.000000	-2.521327	-1.940663	10.821380	138.724995	
RThigh	-104.582724	-43.868855	71.110148	1.186921	1.056410	177.271085	484.665755	
RLowLeg	0.000000	484.665755	0.000000	-9.413113	-2.560999	2.584420	338.943480	
RFoot	0.000000	338.943480	0.000000	38.119802	-1.210697	-2.462270	108.422675	
RToe	0.000000	108.422675	0.000000	62.205972	5.729825	0.107186	135.948299	
LThigh	104.514322	-44.027056	71.110540	1.887019	-3.794944	-176.973714	484.665500	
LLowLeg	0.000000	484.665500	0.000000	-9.413064	2.561022	-2.584327	338.944952	
LFoot	0.000000	338.944952	0.000000	38.119895	1.210631	2.462181	108.422417	
LToe	0.000000	108.422417	0.000000	62.206117	-5.729564	-0.107296	135.948400	
#Beginning of Data. Separated by tabs
[LowerTorso]
#Fr     Tx      Ty      Tz      Rx      Ry      Rz      SF
657	1049.982544	-51.059078	576.799377	99.164001	-85.940796	-86.687874	1.000000	
658	1035.506470	-50.927025	572.083923	104.563118	-85.409180	-91.953865	1.000000	
659	1021.273376	-50.507164	567.024902	105.261154	-84.938339	-92.554092	1.000000	
660	1008.965515	-48.876949	561.762573	99.544960	-84.937965	-86.379372	1.000000	
661	995.425659	-47.734772	555.769836	93.199661	-84.839874	-79.895485	1.000000	
662	982.079224	-46.197124	549.841003	85.005692	-84.788483	-71.559708	1.000000	
663	968.818604	-44.231987	544.520874	76.960228	-84.710083	-63.413883	1.000000	
[MidTorso1]
#Fr     Tx      Ty      Tz      Rx      Ry      Rz      SF
657	0.000000	0.000000	0.000000	4.212565	1.617595	1.873038	1.000000	
658	0.000000	0.000000	0.000000	4.346207	1.614218	2.116963	1.000000	
659	0.000000	0.000000	0.000000	4.473349	1.522991	2.360079	1.000000	
660	0.000000	0.000000	0.000000	4.366802	1.170580	2.506532	1.000000	
661	0.000000	0.000000	0.000000	4.378607	0.972966	2.600070	1.000000	
662	0.000000	0.000000	0.000000	4.318144	0.805486	2.637832	1.000000	
663	0.000000	0.000000	0.000000	4.203241	0.722846	2.650574	1.000000	
[MidTorso2]
#Fr     Tx      Ty      Tz      Rx      Ry      Rz      SF
657	0.000000	0.000000	0.000000	4.355860	1.419757	1.685227	1.000000	
658	0.000000	0.000000	0.000000	4.511514	1.383249	1.912610	1.000000	
659	0.000000	0.000000	0.000000	4.661365	1.259818	2.126356	1.000000	
660	0.000000	0.000000	0.000000	4.572807	0.886381	2.226841	1.000000	
661	0.000000	0.000000	0.000000	4.595406	0.677245	2.287562	1.000000	
662	0.000000	0.000000	0.000000	4.540729	0.504337	2.304774	1.000000	
663	0.000000	0.000000	0.000000	4.428626	0.417554	2.315532	1.000000	
[UpperTorso]
#Fr     Tx      Ty      Tz      Rx      Ry      Rz      SF
657	0.000000	0.000000	0.000000	4.219701	0.991556	2.241042	1.000000	
658	0.000000	0.000000	0.000000	4.350739	0.918195	2.473410	1.000000	
659	0.000000	0.000000	0.000000	4.474038	0.760893	2.680051	1.000000	
660	0.000000	0.000000	0.000000	4.362233	0.382098	2.720685	1.000000	
661	0.000000	0.000000	0.000000	4.371220	0.165998	2.754169	1.000000	
662	0.000000	0.000000	0.000000	4.309042	-0.004923	2.743018	1.000000	
663	0.000000	0.000000	0.000000	4.193420	-0.087055	2.732185	1.000000	
[Neck]
#Fr     Tx      Ty      Tz      Rx      Ry      Rz      SF
657	0.000000	0.000000	0.000000	-25.878128	32.071888	-7.798099	1.000000	
658	0.000000	0.000000	0.000000	-27.018900	32.533810	-8.874056	1.000000	
659	0.000000	0.000000	0.000000	-27.997314	32.943466	-9.767553	1.000000	
660	0.000000	0.000000	0.000000	-28.096943	33.792030	-10.062549	1.000000	
661	0.000000	0.000000	0.000000	-28.391708	33.829628	-10.280054	1.000000	
662	0.000000	0.000000	0.000000	-28.239477	33.618553	-10.214406	1.000000	
663	0.000000	0.000000	0.000000	-27.699541	33.139114	-9.979727	1.000000	
[Head]
#Fr     Tx      Ty      Tz      Rx      Ry      Rz      SF
657	0.000000	0.000000	0.000000	1.984435	-5.557844	-0.112344	1.000000	
658	0.000000	0.000000	0.000000	2.156509	-5.827432	-0.153915	1.000000	
659	0.000000	0.000000	0.000000	2.312169	-6.041155	-0.189051	1.000000	
660	0.000000	0.000000	0.000000	2.812100	-6.328145	-0.073481	1.000000	
661	0.000000	0.000000	0.000000	2.666951	-6.375902	-0.050073	1.000000	
662	0.000000	0.000000	0.000000	2.347847	-6.359746	0.005431	1.000000	
663	0.000000	0.000000	0.000000	1.977681	-6.313874	0.074987	1.000000	
[LCollar]
#Fr     Tx      Ty      Tz      Rx      Ry      Rz      SF
657	0.000000	0.000000	0.000000	7.520326	2.365771	-17.363472	1.000000	
658	0.000000	0.000000	0.000000	7.790744	2.521176	-17.822908	1.000000	
659	0.000000	0.000000	0.000000	8.049249	2.629865	-17.975679	1.000000	
660	0.000000	0.000000	0.000000	7.284949	2.382015	-18.010117	1.000000	
661	0.000000	0.000000	0.000000	7.483510	2.370897	-17.480135	1.000000	
662	0.000000	0.000000	0.000000	7.628843	2.338695	-16.943678	1.000000	
663	0.000000	0.000000	0.000000	7.682091	2.314728	-16.668781	1.000000	
[LUpArm]
#Fr     Tx      Ty      Tz      Rx      Ry      Rz      SF
657	0.000000	0.000000	0.000000	3.884439	17.352543	-49.582241	1.000000	
658	0.000000	0.000000	0.000000	2.070761	17.815104	-49.874245	1.000000	
659	0.000000	0.000000	0.000000	0.796442	18.276339	-50.402824	1.000000	
660	0.000000	0.000000	0.000000	2.251811	23.376719	-49.351505	1.000000	
661	0.000000	0.000000	0.000000	2.265988	23.819672	-50.155499	1.000000	
662	0.000000	0.000000	0.000000	2.826927	24.138762	-50.871578	1.000000	
663	0.000000	0.000000	0.000000	3.709614	24.274284	-51.378174	1.000000	
[LLowArm]
#Fr     Tx      Ty      Tz      Rx      Ry      Rz      SF
657	0.000000	0.000000	0.000000	30.752344	-0.006403	-0.001760	1.000000	
658	0.000000	0.000000	0.000000	34.039158	-0.007009	-0.002145	1.000000	
659	0.000000	0.000000	0.000000	36.435696	-0.007437	-0.002447	1.000000	
660	0.000000	0.000000	0.000000	35.421036	-0.007258	-0.002317	1.000000	
661	0.000000	0.000000	0.000000	35.774170	-0.007320	-0.002362	1.000000	
662	0.000000	0.000000	0.000000	35.288998	-0.007234	-0.002300	1.000000	
663	0.000000	0.000000	0.000000	34.311848	-0.007059	-0.002178	1.000000	
[LHand]
#Fr     Tx      Ty      Tz      Rx      Ry      Rz      SF
657	0.000000	0.000000	0.000000	-167.703674	-0.949040	164.319305	1.000000	
658	0.000000	0.000000	0.000000	-167.549240	-3.063410	164.877151	1.000000	
659	0.000000	0.000000	0.000000	-167.433228	-4.610605	166.146179	1.000000	
660	0.000000	0.000000	0.000000	-167.973068	-1.201906	170.057846	1.000000	
661	0.000000	0.000000	0.000000	-167.855576	-2.086396	171.110229	1.000000	
662	0.000000	0.000000	0.000000	-167.521774	-2.805011	171.531067	1.000000	
663	0.000000	0.000000	0.000000	-166.889252	-3.179862	171.435867	1.000000	
[RCollar]
#Fr     Tx      Ty      Tz      Rx      Ry      Rz      SF
657	0.000000	0.000000	0.000000	4.508886	-1.582858	19.304209	1.000000	
658	0.000000	0.000000	0.000000	4.749194	-1.630209	18.902325	1.000000	
659	0.000000	0.000000	0.000000	4.971516	-1.681857	18.644150	1.000000	
660	0.000000	0.000000	0.000000	6.794262	-2.285031	18.502661	1.000000	
661	0.000000	0.000000	0.000000	6.713551	-2.271499	18.608536	1.000000	
662	0.000000	0.000000	0.000000	6.556776	-2.244197	18.813185	1.000000	
663	0.000000	0.000000	0.000000	6.437895	-2.228871	19.017096	1.000000	
[RUpArm]
#Fr     Tx      Ty      Tz      Rx      Ry      Rz      SF
657	0.000000	0.000000	0.000000	-7.451883	-25.687794	54.978718	1.000000	
658	0.000000	0.000000	0.000000	-8.077797	-26.735571	55.120621	1.000000	
659	0.000000	0.000000	0.000000	-8.439216	-28.001616	55.007820	1.000000	
660	0.000000	0.000000	0.000000	-9.552107	-28.862770	55.051502	1.000000	
661	0.000000	0.000000	0.000000	-9.649714	-29.687731	54.698368	1.000000	
662	0.000000	0.000000	0.000000	-9.814150	-30.065983	54.315243	1.000000	
663	0.000000	0.000000	0.000000	-10.105295	-30.022846	53.936371	1.000000	
[RLowArm]
#Fr     Tx      Ty      Tz      Rx      Ry      Rz      SF
657	0.000000	0.000000	0.000000	18.359581	0.000007	0.000007	1.000000	
658	0.000000	0.000000	0.000000	19.419310	0.000007	0.000008	1.000000	
659	0.000000	0.000000	0.000000	20.295790	0.000007	0.000008	1.000000	
660	0.000000	0.000000	0.000000	21.380001	0.000008	0.000008	1.000000	
661	0.000000	0.000000	0.000000	22.172112	0.000008	0.000009	1.000000	
662	0.000000	0.000000	0.000000	23.030987	0.000008	0.000009	1.000000	
663	0.000000	0.000000	0.000000	23.938692	0.000009	0.000010	1.000000	
[RHand]
#Fr     Tx      Ty      Tz      Rx      Ry      Rz      SF
657	0.000000	0.000000	0.000000	-177.394394	3.376647	-167.712357	1.000000	
658	0.000000	0.000000	0.000000	-177.313004	4.094832	-167.411957	1.000000	
659	0.000000	0.000000	0.000000	-177.733444	4.094418	-166.910797	1.000000	
660	0.000000	0.000000	0.000000	-178.839813	2.968684	-167.779312	1.000000	
661	0.000000	0.000000	0.000000	-179.358276	2.168759	-167.818283	1.000000	
662	0.000000	0.000000	0.000000	-179.602005	1.328414	-168.089905	1.000000	
663	0.000000	0.000000	0.000000	-179.555939	0.648116	-168.524033	1.000000	
[RThigh]
#Fr     Tx      Ty      Tz      Rx      Ry      Rz      SF
657	0.000000	0.000000	0.000000	38.997341	-9.591731	0.099048	1.000000	
658	0.000000	0.000000	0.000000	39.355999	-10.005084	1.212140	1.000000	
659	0.000000	0.000000	0.000000	39.498928	-10.407367	2.266294	1.000000	
660	0.000000	0.000000	0.000000	39.777981	-10.747186	2.586191	1.000000	
661	0.000000	0.000000	0.000000	39.625206	-11.098198	3.122280	1.000000	
662	0.000000	0.000000	0.000000	39.343781	-11.429704	3.423903	1.000000	
663	0.000000	0.000000	0.000000	38.903816	-11.739101	3.595864	1.000000	
[RLowLeg]
#Fr     Tx      Ty      Tz      Rx      Ry      Rz      SF
657	0.000000	0.000000	0.000000	-12.283472	0.000001	-0.000004	1.000000	
658	0.000000	0.000000	0.000000	-14.911378	0.000000	-0.000005	1.000000	
659	0.000000	0.000000	0.000000	-17.313049	0.000000	-0.000006	1.000000	
660	0.000000	0.000000	0.000000	-18.863276	0.000000	-0.000007	1.000000	
661	0.000000	0.000000	0.000000	-20.437819	0.000000	-0.000008	1.000000	
662	0.000000	0.000000	0.000000	-21.657179	0.000000	-0.000008	1.000000	
663	0.000000	0.000000	0.000000	-22.608788	0.000000	-0.000008	1.000000	
[RFoot]
#Fr     Tx      Ty      Tz      Rx      Ry      Rz      SF
657	0.000000	0.000000	0.000000	-11.929964	3.387764	15.625932	1.000000	
658	0.000000	0.000000	0.000000	-10.436833	2.862776	15.170581	1.000000	
659	0.000000	0.000000	0.000000	-8.764248	2.193268	13.941128	1.000000	
660	0.000000	0.000000	0.000000	-7.509788	1.595173	11.923866	1.000000	
661	0.000000	0.000000	0.000000	-6.591541	1.160864	9.944323	1.000000	
662	0.000000	0.000000	0.000000	-5.995373	0.839244	7.939620	1.000000	
663	0.000000	0.000000	0.000000	-5.460429	0.589167	6.139667	1.000000	
[RToe]
#Fr     Tx      Ty      Tz      Rx      Ry      Rz      SF
657	0.000000	0.000000	0.000000	2.143169	0.000004	0.000001	1.000000	
658	0.000000	0.000000	0.000000	0.627758	0.000001	0.000000	1.000000	
659	0.000000	0.000000	0.000000	-0.725974	-0.000001	0.000000	1.000000	
660	0.000000	0.000000	0.000000	-1.272527	-0.000002	0.000000	1.000000	
661	0.000000	0.000000	0.000000	-0.928028	-0.000002	0.000000	1.000000	
662	0.000000	0.000000	0.000000	0.004251	0.000000	0.000000	1.000000	
663	0.000000	0.000000	0.000000	0.925056	0.000002	0.000000	1.000000	
[LThigh]
#Fr     Tx      Ty      Tz      Rx      Ry      Rz      SF
657	0.000000	0.000000	0.000000	3.545317	-10.080120	3.878006	1.000000	
658	0.000000	0.000000	0.000000	3.001151	-10.178398	5.037816	1.000000	
659	0.000000	0.000000	0.000000	2.654981	-9.910794	6.114176	1.000000	
660	0.000000	0.000000	0.000000	3.249888	-9.729848	6.674759	1.000000	
661	0.000000	0.000000	0.000000	3.663919	-8.979057	7.303522	1.000000	
662	0.000000	0.000000	0.000000	4.416270	-8.124366	7.713370	1.000000	
663	0.000000	0.000000	0.000000	5.366485	-7.250039	7.933648	1.000000	
[LLowLeg]
#Fr     Tx      Ty      Tz      Rx      Ry      Rz      SF
657	0.000000	0.000000	0.000000	-29.503918	0.000050	-0.000027	1.000000	
658	0.000000	0.000000	0.000000	-29.917763	0.000051	-0.000027	1.000000	
659	0.000000	0.000000	0.000000	-30.507492	0.000052	-0.000028	1.000000	
660	0.000000	0.000000	0.000000	-32.030750	0.000054	-0.000030	1.000000	
661	0.000000	0.000000	0.000000	-33.367867	0.000056	-0.000032	1.000000	
662	0.000000	0.000000	0.000000	-35.138134	0.000058	-0.000034	1.000000	
663	0.000000	0.000000	0.000000	-37.255833	0.000061	-0.000037	1.000000	
[LFoot]
#Fr     Tx      Ty      Tz      Rx      Ry      Rz      SF
657	0.000000	0.000000	0.000000	10.169684	0.325778	-1.815579	1.000000	
658	0.000000	0.000000	0.000000	8.470730	0.505499	-3.390339	1.000000	
659	0.000000	0.000000	0.000000	6.337393	0.524887	-4.715506	1.000000	
660	0.000000	0.000000	0.000000	6.574306	0.654222	-5.658157	1.000000	
661	0.000000	0.000000	0.000000	3.567177	0.403615	-6.447353	1.000000	
662	0.000000	0.000000	0.000000	0.275479	0.033468	-6.930274	1.000000	
663	0.000000	0.000000	0.000000	-3.175052	-0.387291	-6.947212	1.000000	
[LToe]
#Fr     Tx      Ty      Tz      Rx      Ry      Rz      SF
657	0.000000	0.000000	0.000000	18.269863	0.000050	0.000014	1.000000	
658	0.000000	0.000000	0.000000	18.701447	0.000051	0.000014	1.000000	
659	0.000000	0.000000	0.000000	19.178089	0.000052	0.000015	1.000000	
660	0.000000	0.000000	0.000000	15.802053	0.000044	0.000011	1.000000	
661	0.000000	0.000000	0.000000	16.136095	0.000044	0.000012	1.000000	
662	0.000000	0.000000	0.000000	16.125952	0.000044	0.000012	1.000000	
663	0.000000	0.000000	0.000000	15.678077	0.000043	0.000011	1.000000	
[EndOfFile]
